<mxfile host="app.diagrams.net" modified="2024-04-27T09:22:46.501Z" agent="Mozilla/5.0 (Windows NT 10.0; Win64; x64) AppleWebKit/537.36 (KHTML, like Gecko) Chrome/124.0.0.0 Safari/537.36" etag="YluTMdqiwGG3lxGbA1nw" version="24.3.1" type="onedrive">
  <diagram name="Page-1" id="pqbd5TYNd9kQ2ZrSVwDs">
    <mxGraphModel grid="1" page="1" gridSize="10" guides="1" tooltips="1" connect="1" arrows="1" fold="1" pageScale="1" pageWidth="50000" pageHeight="50000" math="0" shadow="0">
      <root>
        <mxCell id="0" />
        <mxCell id="1" parent="0" />
        <mxCell id="Z4093me_VeoFvdX0N4Kh-1" value="Diaporama" style="swimlane;fontStyle=1;align=center;verticalAlign=top;childLayout=stackLayout;horizontal=1;startSize=26;horizontalStack=0;resizeParent=1;resizeParentMax=0;resizeLast=0;collapsible=1;marginBottom=0;whiteSpace=wrap;html=1;" vertex="1" parent="1">
          <mxGeometry x="460" y="120" width="270" height="410" as="geometry" />
        </mxCell>
        <mxCell id="Z4093me_VeoFvdX0N4Kh-2" value="# m_nom : String" style="text;strokeColor=none;fillColor=none;align=left;verticalAlign=top;spacingLeft=4;spacingRight=4;overflow=hidden;rotatable=0;points=[[0,0.5],[1,0.5]];portConstraint=eastwest;whiteSpace=wrap;html=1;" vertex="1" parent="Z4093me_VeoFvdX0N4Kh-1">
          <mxGeometry y="26" width="270" height="26" as="geometry" />
        </mxCell>
        <mxCell id="Z4093me_VeoFvdX0N4Kh-44" value="# m_vitesseDefilement : Unsigned Integer" style="text;strokeColor=none;fillColor=none;align=left;verticalAlign=top;spacingLeft=4;spacingRight=4;overflow=hidden;rotatable=0;points=[[0,0.5],[1,0.5]];portConstraint=eastwest;whiteSpace=wrap;html=1;" vertex="1" parent="Z4093me_VeoFvdX0N4Kh-1">
          <mxGeometry y="52" width="270" height="26" as="geometry" />
        </mxCell>
        <mxCell id="4ActZesi2A9tJW_lM_6--1" value="# m_imagess : vector &amp;lt;Image*&amp;gt;" style="text;strokeColor=none;fillColor=none;align=left;verticalAlign=top;spacingLeft=4;spacingRight=4;overflow=hidden;rotatable=0;points=[[0,0.5],[1,0.5]];portConstraint=eastwest;whiteSpace=wrap;html=1;" vertex="1" parent="Z4093me_VeoFvdX0N4Kh-1">
          <mxGeometry y="78" width="270" height="26" as="geometry" />
        </mxCell>
        <mxCell id="Z4093me_VeoFvdX0N4Kh-3" value="" style="line;strokeWidth=1;fillColor=none;align=left;verticalAlign=middle;spacingTop=-1;spacingLeft=3;spacingRight=3;rotatable=0;labelPosition=right;points=[];portConstraint=eastwest;strokeColor=inherit;" vertex="1" parent="Z4093me_VeoFvdX0N4Kh-1">
          <mxGeometry y="104" width="270" height="8" as="geometry" />
        </mxCell>
        <mxCell id="Z4093me_VeoFvdX0N4Kh-4" value="+ Diporama(pTtitre : String,&lt;div&gt;&lt;span style=&quot;white-space: pre;&quot;&gt;&#x9;&lt;/span&gt;&lt;span style=&quot;white-space: pre;&quot;&gt;&#x9;&lt;/span&gt;&amp;nbsp; &amp;nbsp; pVitesseDefilement : Unsigned&lt;/div&gt;&lt;div&gt;&lt;span style=&quot;white-space: pre;&quot;&gt;&#x9;&lt;/span&gt;&lt;span style=&quot;white-space: pre;&quot;&gt;&#x9;&lt;/span&gt;&amp;nbsp; &amp;nbsp; &amp;nbsp; &amp;nbsp;Integer)&lt;/div&gt;" style="text;strokeColor=none;fillColor=none;align=left;verticalAlign=top;spacingLeft=4;spacingRight=4;overflow=hidden;rotatable=0;points=[[0,0.5],[1,0.5]];portConstraint=eastwest;whiteSpace=wrap;html=1;" vertex="1" parent="Z4093me_VeoFvdX0N4Kh-1">
          <mxGeometry y="112" width="270" height="58" as="geometry" />
        </mxCell>
        <mxCell id="Z4093me_VeoFvdX0N4Kh-21" value="+ avancer()" style="text;strokeColor=none;fillColor=none;align=left;verticalAlign=top;spacingLeft=4;spacingRight=4;overflow=hidden;rotatable=0;points=[[0,0.5],[1,0.5]];portConstraint=eastwest;whiteSpace=wrap;html=1;" vertex="1" parent="Z4093me_VeoFvdX0N4Kh-1">
          <mxGeometry y="170" width="270" height="30" as="geometry" />
        </mxCell>
        <mxCell id="it0wWsVQuLibk-jjSiZW-5" value="+ reculer()" style="text;strokeColor=none;fillColor=none;align=left;verticalAlign=top;spacingLeft=4;spacingRight=4;overflow=hidden;rotatable=0;points=[[0,0.5],[1,0.5]];portConstraint=eastwest;whiteSpace=wrap;html=1;" vertex="1" parent="Z4093me_VeoFvdX0N4Kh-1">
          <mxGeometry y="200" width="270" height="30" as="geometry" />
        </mxCell>
        <mxCell id="Z4093me_VeoFvdX0N4Kh-23" value="+ nbImages() : Unsigned Integer" style="text;strokeColor=none;fillColor=none;align=left;verticalAlign=top;spacingLeft=4;spacingRight=4;overflow=hidden;rotatable=0;points=[[0,0.5],[1,0.5]];portConstraint=eastwest;whiteSpace=wrap;html=1;" vertex="1" parent="Z4093me_VeoFvdX0N4Kh-1">
          <mxGeometry y="230" width="270" height="30" as="geometry" />
        </mxCell>
        <mxCell id="Z4093me_VeoFvdX0N4Kh-34" value="+ vitesseDefilement(pVitesse : Unsigned Integer)" style="text;strokeColor=none;fillColor=none;align=left;verticalAlign=top;spacingLeft=4;spacingRight=4;overflow=hidden;rotatable=0;points=[[0,0.5],[1,0.5]];portConstraint=eastwest;whiteSpace=wrap;html=1;" vertex="1" parent="Z4093me_VeoFvdX0N4Kh-1">
          <mxGeometry y="260" width="270" height="40" as="geometry" />
        </mxCell>
        <mxCell id="Z4093me_VeoFvdX0N4Kh-45" value="+ chargerImages(pTab : vector &amp;lt;unsigned int&amp;gt;,&lt;div&gt;&lt;span style=&quot;white-space: pre;&quot;&gt;&#x9;&lt;/span&gt;&lt;span style=&quot;white-space: pre;&quot;&gt;&#x9;&lt;/span&gt;&lt;span style=&quot;white-space: pre;&quot;&gt;&#x9;&lt;/span&gt;&amp;nbsp; &amp;nbsp; pTailleTab : Unsigned Ineteger)&lt;/div&gt;" style="text;strokeColor=none;fillColor=none;align=left;verticalAlign=top;spacingLeft=4;spacingRight=4;overflow=hidden;rotatable=0;points=[[0,0.5],[1,0.5]];portConstraint=eastwest;whiteSpace=wrap;html=1;" vertex="1" parent="Z4093me_VeoFvdX0N4Kh-1">
          <mxGeometry y="300" width="270" height="50" as="geometry" />
        </mxCell>
        <mxCell id="4ActZesi2A9tJW_lM_6--2" value="+ imageCourante() : Image*" style="text;strokeColor=none;fillColor=none;align=left;verticalAlign=top;spacingLeft=4;spacingRight=4;overflow=hidden;rotatable=0;points=[[0,0.5],[1,0.5]];portConstraint=eastwest;whiteSpace=wrap;html=1;" vertex="1" parent="Z4093me_VeoFvdX0N4Kh-1">
          <mxGeometry y="350" width="270" height="30" as="geometry" />
        </mxCell>
        <mxCell id="4ActZesi2A9tJW_lM_6--3" value="+ getTitre() : String" style="text;strokeColor=none;fillColor=none;align=left;verticalAlign=top;spacingLeft=4;spacingRight=4;overflow=hidden;rotatable=0;points=[[0,0.5],[1,0.5]];portConstraint=eastwest;whiteSpace=wrap;html=1;" vertex="1" parent="Z4093me_VeoFvdX0N4Kh-1">
          <mxGeometry y="380" width="270" height="30" as="geometry" />
        </mxCell>
        <mxCell id="Z4093me_VeoFvdX0N4Kh-5" value="Image" style="swimlane;fontStyle=1;align=center;verticalAlign=top;childLayout=stackLayout;horizontal=1;startSize=26;horizontalStack=0;resizeParent=1;resizeParentMax=0;resizeLast=0;collapsible=1;marginBottom=0;whiteSpace=wrap;html=1;" vertex="1" parent="1">
          <mxGeometry x="890" y="120" width="230" height="290" as="geometry" />
        </mxCell>
        <mxCell id="Z4093me_VeoFvdX0N4Kh-13" value="# m_categorie: String" style="text;strokeColor=none;fillColor=none;align=left;verticalAlign=top;spacingLeft=4;spacingRight=4;overflow=hidden;rotatable=0;points=[[0,0.5],[1,0.5]];portConstraint=eastwest;whiteSpace=wrap;html=1;" vertex="1" parent="Z4093me_VeoFvdX0N4Kh-5">
          <mxGeometry y="26" width="230" height="26" as="geometry" />
        </mxCell>
        <mxCell id="Z4093me_VeoFvdX0N4Kh-6" value="# m_titre : String" style="text;strokeColor=none;fillColor=none;align=left;verticalAlign=top;spacingLeft=4;spacingRight=4;overflow=hidden;rotatable=0;points=[[0,0.5],[1,0.5]];portConstraint=eastwest;whiteSpace=wrap;html=1;" vertex="1" parent="Z4093me_VeoFvdX0N4Kh-5">
          <mxGeometry y="52" width="230" height="26" as="geometry" />
        </mxCell>
        <mxCell id="Z4093me_VeoFvdX0N4Kh-14" value="# m_chemin : String" style="text;strokeColor=none;fillColor=none;align=left;verticalAlign=top;spacingLeft=4;spacingRight=4;overflow=hidden;rotatable=0;points=[[0,0.5],[1,0.5]];portConstraint=eastwest;whiteSpace=wrap;html=1;" vertex="1" parent="Z4093me_VeoFvdX0N4Kh-5">
          <mxGeometry y="78" width="230" height="26" as="geometry" />
        </mxCell>
        <mxCell id="Z4093me_VeoFvdX0N4Kh-7" value="" style="line;strokeWidth=1;fillColor=none;align=left;verticalAlign=middle;spacingTop=-1;spacingLeft=3;spacingRight=3;rotatable=0;labelPosition=right;points=[];portConstraint=eastwest;strokeColor=inherit;" vertex="1" parent="Z4093me_VeoFvdX0N4Kh-5">
          <mxGeometry y="104" width="230" height="8" as="geometry" />
        </mxCell>
        <mxCell id="Z4093me_VeoFvdX0N4Kh-8" value="+ Image(pCategorie : String,&lt;div&gt;&lt;span style=&quot;white-space: pre;&quot;&gt;&#x9;&lt;/span&gt;&amp;nbsp; &amp;nbsp; &amp;nbsp; pTtitre : String,&lt;br&gt;&lt;/div&gt;&lt;div&gt;&lt;span style=&quot;white-space: pre;&quot;&gt;&#x9;&lt;/span&gt;&amp;nbsp; &amp;nbsp; &amp;nbsp; pChemin : String)&lt;br&gt;&lt;/div&gt;" style="text;strokeColor=none;fillColor=none;align=left;verticalAlign=top;spacingLeft=4;spacingRight=4;overflow=hidden;rotatable=0;points=[[0,0.5],[1,0.5]];portConstraint=eastwest;whiteSpace=wrap;html=1;" vertex="1" parent="Z4093me_VeoFvdX0N4Kh-5">
          <mxGeometry y="112" width="230" height="58" as="geometry" />
        </mxCell>
        <mxCell id="Z4093me_VeoFvdX0N4Kh-15" value="+ getCategorie() : String" style="text;strokeColor=none;fillColor=none;align=left;verticalAlign=top;spacingLeft=4;spacingRight=4;overflow=hidden;rotatable=0;points=[[0,0.5],[1,0.5]];portConstraint=eastwest;whiteSpace=wrap;html=1;" vertex="1" parent="Z4093me_VeoFvdX0N4Kh-5">
          <mxGeometry y="170" width="230" height="30" as="geometry" />
        </mxCell>
        <mxCell id="Z4093me_VeoFvdX0N4Kh-16" value="+ getTitre() : String" style="text;strokeColor=none;fillColor=none;align=left;verticalAlign=top;spacingLeft=4;spacingRight=4;overflow=hidden;rotatable=0;points=[[0,0.5],[1,0.5]];portConstraint=eastwest;whiteSpace=wrap;html=1;" vertex="1" parent="Z4093me_VeoFvdX0N4Kh-5">
          <mxGeometry y="200" width="230" height="30" as="geometry" />
        </mxCell>
        <mxCell id="Z4093me_VeoFvdX0N4Kh-17" value="+ getChemin() : String" style="text;strokeColor=none;fillColor=none;align=left;verticalAlign=top;spacingLeft=4;spacingRight=4;overflow=hidden;rotatable=0;points=[[0,0.5],[1,0.5]];portConstraint=eastwest;whiteSpace=wrap;html=1;" vertex="1" parent="Z4093me_VeoFvdX0N4Kh-5">
          <mxGeometry y="230" width="230" height="30" as="geometry" />
        </mxCell>
        <mxCell id="Z4093me_VeoFvdX0N4Kh-18" value="+ afficher()" style="text;strokeColor=none;fillColor=none;align=left;verticalAlign=top;spacingLeft=4;spacingRight=4;overflow=hidden;rotatable=0;points=[[0,0.5],[1,0.5]];portConstraint=eastwest;whiteSpace=wrap;html=1;" vertex="1" parent="Z4093me_VeoFvdX0N4Kh-5">
          <mxGeometry y="260" width="230" height="30" as="geometry" />
        </mxCell>
        <mxCell id="Z4093me_VeoFvdX0N4Kh-28" value="Lecteur" style="swimlane;fontStyle=1;align=center;verticalAlign=top;childLayout=stackLayout;horizontal=1;startSize=26;horizontalStack=0;resizeParent=1;resizeParentMax=0;resizeLast=0;collapsible=1;marginBottom=0;whiteSpace=wrap;html=1;" vertex="1" parent="1">
          <mxGeometry x="30" y="120" width="310" height="294" as="geometry" />
        </mxCell>
        <mxCell id="Z4093me_VeoFvdX0N4Kh-33" value="# m_mode : Mode" style="text;strokeColor=none;fillColor=none;align=left;verticalAlign=top;spacingLeft=4;spacingRight=4;overflow=hidden;rotatable=0;points=[[0,0.5],[1,0.5]];portConstraint=eastwest;whiteSpace=wrap;html=1;" vertex="1" parent="Z4093me_VeoFvdX0N4Kh-28">
          <mxGeometry y="26" width="310" height="26" as="geometry" />
        </mxCell>
        <mxCell id="4ActZesi2A9tJW_lM_6--4" value="# m_posCourante : Unsigned Integer" style="text;strokeColor=none;fillColor=none;align=left;verticalAlign=top;spacingLeft=4;spacingRight=4;overflow=hidden;rotatable=0;points=[[0,0.5],[1,0.5]];portConstraint=eastwest;whiteSpace=wrap;html=1;" vertex="1" parent="Z4093me_VeoFvdX0N4Kh-28">
          <mxGeometry y="52" width="310" height="26" as="geometry" />
        </mxCell>
        <mxCell id="4ActZesi2A9tJW_lM_6--5" value="# m_diapos : vector &amp;lt;Diaporama*&amp;gt;" style="text;strokeColor=none;fillColor=none;align=left;verticalAlign=top;spacingLeft=4;spacingRight=4;overflow=hidden;rotatable=0;points=[[0,0.5],[1,0.5]];portConstraint=eastwest;whiteSpace=wrap;html=1;" vertex="1" parent="Z4093me_VeoFvdX0N4Kh-28">
          <mxGeometry y="78" width="310" height="26" as="geometry" />
        </mxCell>
        <mxCell id="Z4093me_VeoFvdX0N4Kh-30" value="" style="line;strokeWidth=1;fillColor=none;align=left;verticalAlign=middle;spacingTop=-1;spacingLeft=3;spacingRight=3;rotatable=0;labelPosition=right;points=[];portConstraint=eastwest;strokeColor=inherit;" vertex="1" parent="Z4093me_VeoFvdX0N4Kh-28">
          <mxGeometry y="104" width="310" height="8" as="geometry" />
        </mxCell>
        <mxCell id="4ActZesi2A9tJW_lM_6--6" value="+ Lecteur()" style="text;strokeColor=none;fillColor=none;align=left;verticalAlign=top;spacingLeft=4;spacingRight=4;overflow=hidden;rotatable=0;points=[[0,0.5],[1,0.5]];portConstraint=eastwest;whiteSpace=wrap;html=1;" vertex="1" parent="Z4093me_VeoFvdX0N4Kh-28">
          <mxGeometry y="112" width="310" height="26" as="geometry" />
        </mxCell>
        <mxCell id="Z4093me_VeoFvdX0N4Kh-32" value="+ changerMode(pMode : Mode)" style="text;strokeColor=none;fillColor=none;align=left;verticalAlign=top;spacingLeft=4;spacingRight=4;overflow=hidden;rotatable=0;points=[[0,0.5],[1,0.5]];portConstraint=eastwest;whiteSpace=wrap;html=1;" vertex="1" parent="Z4093me_VeoFvdX0N4Kh-28">
          <mxGeometry y="138" width="310" height="26" as="geometry" />
        </mxCell>
        <mxCell id="Z4093me_VeoFvdX0N4Kh-20" value="+ changerDiaporama(pIndDiapo : Unsigned Integer)" style="text;strokeColor=none;fillColor=none;align=left;verticalAlign=top;spacingLeft=4;spacingRight=4;overflow=hidden;rotatable=0;points=[[0,0.5],[1,0.5]];portConstraint=eastwest;whiteSpace=wrap;html=1;" vertex="1" parent="Z4093me_VeoFvdX0N4Kh-28">
          <mxGeometry y="164" width="310" height="26" as="geometry" />
        </mxCell>
        <mxCell id="Z4093me_VeoFvdX0N4Kh-43" value="+ enleverDiaporama()" style="text;strokeColor=none;fillColor=none;align=left;verticalAlign=top;spacingLeft=4;spacingRight=4;overflow=hidden;rotatable=0;points=[[0,0.5],[1,0.5]];portConstraint=eastwest;whiteSpace=wrap;html=1;" vertex="1" parent="Z4093me_VeoFvdX0N4Kh-28">
          <mxGeometry y="190" width="310" height="26" as="geometry" />
        </mxCell>
        <mxCell id="4ActZesi2A9tJW_lM_6--7" value="+ chargerDiaporamas()" style="text;strokeColor=none;fillColor=none;align=left;verticalAlign=top;spacingLeft=4;spacingRight=4;overflow=hidden;rotatable=0;points=[[0,0.5],[1,0.5]];portConstraint=eastwest;whiteSpace=wrap;html=1;" vertex="1" parent="Z4093me_VeoFvdX0N4Kh-28">
          <mxGeometry y="216" width="310" height="26" as="geometry" />
        </mxCell>
        <mxCell id="4ActZesi2A9tJW_lM_6--9" value="+ diaporamas() : vector &amp;lt;Diaporama*&amp;gt;" style="text;strokeColor=none;fillColor=none;align=left;verticalAlign=top;spacingLeft=4;spacingRight=4;overflow=hidden;rotatable=0;points=[[0,0.5],[1,0.5]];portConstraint=eastwest;whiteSpace=wrap;html=1;" vertex="1" parent="Z4093me_VeoFvdX0N4Kh-28">
          <mxGeometry y="242" width="310" height="26" as="geometry" />
        </mxCell>
        <mxCell id="4ActZesi2A9tJW_lM_6--8" value="+ diaporamaCourant() : Diaporama*" style="text;strokeColor=none;fillColor=none;align=left;verticalAlign=top;spacingLeft=4;spacingRight=4;overflow=hidden;rotatable=0;points=[[0,0.5],[1,0.5]];portConstraint=eastwest;whiteSpace=wrap;html=1;" vertex="1" parent="Z4093me_VeoFvdX0N4Kh-28">
          <mxGeometry y="268" width="310" height="26" as="geometry" />
        </mxCell>
        <mxCell id="Z4093me_VeoFvdX0N4Kh-35" style="edgeStyle=orthogonalEdgeStyle;rounded=0;orthogonalLoop=1;jettySize=auto;html=1;exitX=1;exitY=0.5;exitDx=0;exitDy=0;entryX=0;entryY=0.5;entryDx=0;entryDy=0;endArrow=classic;endFill=1;startArrow=none;startFill=0;" edge="1" parent="1" source="Z4093me_VeoFvdX0N4Kh-33" target="Z4093me_VeoFvdX0N4Kh-2">
          <mxGeometry relative="1" as="geometry">
            <mxPoint x="380" y="159" as="sourcePoint" />
          </mxGeometry>
        </mxCell>
        <mxCell id="Z4093me_VeoFvdX0N4Kh-36" value="lire" style="text;html=1;align=center;verticalAlign=middle;resizable=0;points=[];autosize=1;strokeColor=none;fillColor=none;" vertex="1" parent="1">
          <mxGeometry x="370" y="130" width="40" height="30" as="geometry" />
        </mxCell>
        <mxCell id="Z4093me_VeoFvdX0N4Kh-37" value="0..1" style="text;html=1;align=center;verticalAlign=middle;resizable=0;points=[];autosize=1;strokeColor=none;fillColor=none;" vertex="1" parent="1">
          <mxGeometry x="420" y="130" width="40" height="30" as="geometry" />
        </mxCell>
        <mxCell id="Z4093me_VeoFvdX0N4Kh-38" value="*" style="text;html=1;align=center;verticalAlign=middle;resizable=0;points=[];autosize=1;strokeColor=none;fillColor=none;" vertex="1" parent="1">
          <mxGeometry x="340" y="130" width="30" height="30" as="geometry" />
        </mxCell>
        <mxCell id="Z4093me_VeoFvdX0N4Kh-39" style="edgeStyle=orthogonalEdgeStyle;rounded=0;orthogonalLoop=1;jettySize=auto;html=1;exitX=1;exitY=0.5;exitDx=0;exitDy=0;entryX=0;entryY=0.5;entryDx=0;entryDy=0;startArrow=diamondThin;startFill=0;endArrow=none;endFill=0;" edge="1" parent="1" source="Z4093me_VeoFvdX0N4Kh-2" target="Z4093me_VeoFvdX0N4Kh-13">
          <mxGeometry relative="1" as="geometry" />
        </mxCell>
        <mxCell id="Z4093me_VeoFvdX0N4Kh-40" value="contenir" style="text;html=1;align=center;verticalAlign=middle;resizable=0;points=[];autosize=1;strokeColor=none;fillColor=none;" vertex="1" parent="1">
          <mxGeometry x="770" y="130" width="70" height="30" as="geometry" />
        </mxCell>
        <mxCell id="Z4093me_VeoFvdX0N4Kh-41" value="1..*" style="text;html=1;align=center;verticalAlign=middle;resizable=0;points=[];autosize=1;strokeColor=none;fillColor=none;" vertex="1" parent="1">
          <mxGeometry x="850" y="130" width="40" height="30" as="geometry" />
        </mxCell>
        <mxCell id="Z4093me_VeoFvdX0N4Kh-42" value="1" style="text;html=1;align=center;verticalAlign=middle;resizable=0;points=[];autosize=1;strokeColor=none;fillColor=none;" vertex="1" parent="1">
          <mxGeometry x="730" y="130" width="30" height="30" as="geometry" />
        </mxCell>
        <mxCell id="4ActZesi2A9tJW_lM_6--10" value="" style="ellipse;html=1;shape=startState;fillColor=#000000;strokeColor=#ff0000;" vertex="1" parent="1">
          <mxGeometry x="1800" y="70" width="30" height="30" as="geometry" />
        </mxCell>
        <mxCell id="4ActZesi2A9tJW_lM_6--11" value="" style="edgeStyle=orthogonalEdgeStyle;html=1;verticalAlign=bottom;endArrow=open;endSize=8;strokeColor=#ff0000;rounded=0;" edge="1" parent="1" source="4ActZesi2A9tJW_lM_6--10">
          <mxGeometry relative="1" as="geometry">
            <mxPoint x="1815" y="160" as="targetPoint" />
          </mxGeometry>
        </mxCell>
        <mxCell id="4ActZesi2A9tJW_lM_6--15" value="Créé" style="rounded=1;whiteSpace=wrap;html=1;arcSize=40;fontColor=#000000;fillColor=#ffffc0;strokeColor=#ff0000;" vertex="1" parent="1">
          <mxGeometry x="1755" y="161" width="120" height="40" as="geometry" />
        </mxCell>
        <mxCell id="4ActZesi2A9tJW_lM_6--16" value="" style="edgeStyle=orthogonalEdgeStyle;html=1;verticalAlign=bottom;endArrow=open;endSize=8;strokeColor=#ff0000;rounded=0;" edge="1" parent="1" source="4ActZesi2A9tJW_lM_6--15">
          <mxGeometry relative="1" as="geometry">
            <mxPoint x="1815" y="261" as="targetPoint" />
          </mxGeometry>
        </mxCell>
        <mxCell id="4ActZesi2A9tJW_lM_6--17" value="appel au constructeur Lecteur()" style="text;html=1;align=center;verticalAlign=middle;resizable=0;points=[];autosize=1;strokeColor=none;fillColor=none;fontSize=10;" vertex="1" parent="1">
          <mxGeometry x="1650" y="110" width="160" height="30" as="geometry" />
        </mxCell>
        <mxCell id="4ActZesi2A9tJW_lM_6--20" value="Chargé" style="rounded=1;whiteSpace=wrap;html=1;arcSize=40;fontColor=#000000;fillColor=#ffffc0;strokeColor=#ff0000;" vertex="1" parent="1">
          <mxGeometry x="1755" y="262" width="120" height="40" as="geometry" />
        </mxCell>
        <mxCell id="4ActZesi2A9tJW_lM_6--21" value="" style="edgeStyle=orthogonalEdgeStyle;html=1;verticalAlign=bottom;endArrow=open;endSize=8;strokeColor=#ff0000;rounded=0;" edge="1" parent="1" source="4ActZesi2A9tJW_lM_6--20">
          <mxGeometry relative="1" as="geometry">
            <mxPoint x="1815" y="362" as="targetPoint" />
          </mxGeometry>
        </mxCell>
        <mxCell id="4ActZesi2A9tJW_lM_6--22" value="appel à la procédure&lt;div style=&quot;font-size: 10px;&quot;&gt;chargerDiaporamas()&lt;/div&gt;" style="text;html=1;align=center;verticalAlign=middle;resizable=0;points=[];autosize=1;strokeColor=none;fillColor=none;fontSize=10;" vertex="1" parent="1">
          <mxGeometry x="1680" y="210" width="120" height="40" as="geometry" />
        </mxCell>
        <mxCell id="4ActZesi2A9tJW_lM_6--26" value="Déchargé" style="rounded=1;whiteSpace=wrap;html=1;arcSize=40;fontColor=#000000;fillColor=#ffffc0;strokeColor=#ff0000;" vertex="1" parent="1">
          <mxGeometry x="1755" y="365" width="120" height="40" as="geometry" />
        </mxCell>
        <mxCell id="4ActZesi2A9tJW_lM_6--27" value="" style="edgeStyle=orthogonalEdgeStyle;html=1;verticalAlign=bottom;endArrow=open;endSize=8;strokeColor=#ff0000;rounded=0;entryX=0.5;entryY=0;entryDx=0;entryDy=0;" edge="1" parent="1" source="4ActZesi2A9tJW_lM_6--26" target="4ActZesi2A9tJW_lM_6--35">
          <mxGeometry relative="1" as="geometry">
            <mxPoint x="1815" y="465" as="targetPoint" />
          </mxGeometry>
        </mxCell>
        <mxCell id="4ActZesi2A9tJW_lM_6--28" value="appel à la procédure&lt;div style=&quot;font-size: 10px;&quot;&gt;enleverDiaporama()&lt;/div&gt;" style="text;html=1;align=center;verticalAlign=middle;resizable=0;points=[];autosize=1;strokeColor=none;fillColor=none;fontSize=10;" vertex="1" parent="1">
          <mxGeometry x="1670" y="305" width="110" height="40" as="geometry" />
        </mxCell>
        <mxCell id="4ActZesi2A9tJW_lM_6--29" value="" style="edgeStyle=orthogonalEdgeStyle;html=1;verticalAlign=bottom;endArrow=open;endSize=8;strokeColor=#ff0000;rounded=0;exitX=1;exitY=0.75;exitDx=0;exitDy=0;" edge="1" parent="1">
          <mxGeometry relative="1" as="geometry">
            <mxPoint x="1875" y="270" as="targetPoint" />
            <mxPoint x="1875" y="292" as="sourcePoint" />
            <Array as="points">
              <mxPoint x="1930" y="292" />
              <mxPoint x="1930" y="270" />
            </Array>
          </mxGeometry>
        </mxCell>
        <mxCell id="4ActZesi2A9tJW_lM_6--30" value="appel à la procédure&lt;div style=&quot;font-size: 10px;&quot;&gt;&lt;span style=&quot;background-color: initial; font-size: 10px;&quot;&gt;changerDiaporama()&lt;/span&gt;&lt;/div&gt;" style="text;html=1;align=center;verticalAlign=middle;resizable=0;points=[];autosize=1;strokeColor=none;fillColor=none;fontSize=10;" vertex="1" parent="1">
          <mxGeometry x="1940" y="262" width="120" height="40" as="geometry" />
        </mxCell>
        <mxCell id="4ActZesi2A9tJW_lM_6--32" value="" style="edgeStyle=orthogonalEdgeStyle;html=1;verticalAlign=bottom;endArrow=none;endSize=8;strokeColor=#ff0000;rounded=0;exitX=1;exitY=0.5;exitDx=0;exitDy=0;endFill=0;" edge="1" parent="1" source="4ActZesi2A9tJW_lM_6--26">
          <mxGeometry relative="1" as="geometry">
            <mxPoint x="1930" y="270" as="targetPoint" />
            <mxPoint x="1970" y="412" as="sourcePoint" />
            <Array as="points">
              <mxPoint x="1875" y="390" />
              <mxPoint x="1940" y="390" />
              <mxPoint x="1940" y="270" />
            </Array>
          </mxGeometry>
        </mxCell>
        <mxCell id="4ActZesi2A9tJW_lM_6--35" value="Détruit" style="rounded=1;whiteSpace=wrap;html=1;arcSize=40;fontColor=#000000;fillColor=#ffffc0;strokeColor=#ff0000;" vertex="1" parent="1">
          <mxGeometry x="1755" y="470" width="120" height="40" as="geometry" />
        </mxCell>
        <mxCell id="4ActZesi2A9tJW_lM_6--36" value="" style="edgeStyle=orthogonalEdgeStyle;html=1;verticalAlign=bottom;endArrow=open;endSize=8;strokeColor=#ff0000;rounded=0;" edge="1" parent="1" source="4ActZesi2A9tJW_lM_6--35">
          <mxGeometry relative="1" as="geometry">
            <mxPoint x="1815" y="570" as="targetPoint" />
          </mxGeometry>
        </mxCell>
        <mxCell id="4ActZesi2A9tJW_lM_6--37" value="appel au destructeur ~Lecteur()" style="text;html=1;align=center;verticalAlign=middle;resizable=0;points=[];autosize=1;strokeColor=none;fillColor=none;fontSize=10;" vertex="1" parent="1">
          <mxGeometry x="1650" y="420" width="160" height="30" as="geometry" />
        </mxCell>
        <mxCell id="4ActZesi2A9tJW_lM_6--38" value="" style="ellipse;html=1;shape=endState;fillColor=#000000;strokeColor=#ff0000;" vertex="1" parent="1">
          <mxGeometry x="1800" y="570" width="30" height="30" as="geometry" />
        </mxCell>
      </root>
    </mxGraphModel>
  </diagram>
</mxfile>
